<?xml version="1.0" encoding="UTF-8" standalone="no"?><!DOCTYPE svg PUBLIC "-//W3C//DTD SVG 1.1//EN" "http://www.w3.org/Graphics/SVG/1.1/DTD/svg11.dtd"><svg width="100%" height="100%" viewBox="0 0 824 824" version="1.1" xmlns="http://www.w3.org/2000/svg" xmlns:xlink="http://www.w3.org/1999/xlink" xml:space="preserve" xmlns:serif="http://www.serif.com/" style="fill-rule:evenodd;clip-rule:evenodd;stroke-linejoin:round;stroke-miterlimit:1.41421;"><rect id="pterodactyl-flat" x="0" y="0" width="823.146" height="823.146" style="fill:none;"/><path d="M283.165,383.123c166.996,-200.234 280.352,-196.915 536.83,-117.586c-107.813,32.84 -230.075,51.402 -295.775,117.141c-56.916,56.95 -58.486,83.408 -66.808,127.915c65.328,9.715 148.332,61.074 148.332,61.074c0,0 -23.984,12.054 -61.733,23.171c7.236,21.506 21.741,38.042 48.579,39.441c22.042,-29.776 35.573,-20.222 53.266,-10.48c-21.057,6.993 -36.88,11.173 -36.311,27.485c0.519,14.873 17.83,18.648 35.916,16.771c-30.89,26.503 -49.452,13.754 -59.178,-15.07c-34.022,2.588 -57.971,-25.676 -88.76,-46.952c-41.982,7.854 -92.151,11.059 -142.965,0.03c-124.414,-27.003 -139.803,-108.088 -139.803,-108.088l-175.234,71.447c43.427,-34.415 92.489,-74.349 109.243,-106.32c-30.292,15.701 -117.468,73.959 -143.646,98.827c0.89,-8.98 36.27,-217.187 384.301,-338.714c-31.464,47.67 -67.505,109.631 -107.956,148.91c0.35,0.288 0.67,10.026 1.702,10.998Zm-128.859,9.428c-2.941,12.072 -13.843,24.566 -24.963,24.71c-11.121,0.144 7.404,-18.719 24.963,-24.71Z" style="fill:#fff;"/><path d="M197.148,298.715c34.987,-86.214 169.279,-172.784 341.335,-161.426c-45.68,24.261 -109.716,58.701 -158.378,124.896l0.001,-0.001c15.287,-23.187 29.794,-46.438 43.51,-67.219c-89.366,27.154 -156.291,56.092 -226.468,103.75Z" style="fill:#fff;"/><path d="M453.474,620.651c14.898,-2.158 29.986,-4.292 43.062,-7.047c12.36,11.139 24.575,20.875 36.509,28.289c-31.79,10.208 -58.43,1.598 -79.571,-21.242Z" style="fill:#fff;"/><path d="M551.909,603.693c2.886,7.036 7.266,12.824 11.684,16.635c3.286,-12.998 13.941,-21.196 32.601,-26.143c-17.374,-8.14 -30.784,-8.426 -44.285,9.508Z" style="fill:#fff;"/></svg>