<?xml version="1.0" standalone="no"?>
<!DOCTYPE svg PUBLIC "-//W3C//DTD SVG 20010904//EN"
 "http://www.w3.org/TR/2001/REC-SVG-20010904/DTD/svg10.dtd">
<svg version="1.0" xmlns="http://www.w3.org/2000/svg"
 width="1183.000000pt" height="1183.000000pt" viewBox="0 0 1183.000000 1183.000000"
 preserveAspectRatio="xMidYMid meet">
<metadata>
Created by potrace 1.11, written by Peter Selinger 2001-2013
</metadata>
<g transform="translate(0.000000,1183.000000) scale(0.100000,-0.100000)"
fill="#000000" stroke="none">
<path d="M6065 11816 c-86 -38 -296 -338 -455 -651 -134 -263 -221 -482 -431
-1087 l-114 -327 -70 -11 c-284 -46 -608 -127 -719 -180 -65 -31 -138 -96
-163 -145 -28 -53 -28 -140 0 -260 22 -95 27 -151 38 -415 9 -240 9 -314 0
-343 -7 -20 -11 -69 -10 -109 l2 -73 -30 -3 c-17 -2 -34 -9 -36 -17 -3 -7 3
-136 13 -287 10 -150 17 -274 16 -275 -1 -1 -18 2 -38 6 l-37 9 -15 -52 c-59
-203 -100 -432 -117 -650 -15 -193 -2 -398 37 -561 14 -60 28 -119 31 -130 4
-18 -5 -22 -84 -39 -148 -32 -567 -144 -694 -186 -357 -117 -696 -373 -788
-595 -69 -166 -108 -402 -96 -584 19 -294 87 -510 307 -976 183 -387 201 -450
201 -725 -1 -197 -18 -393 -59 -660 -33 -221 -96 -554 -144 -768 -22 -97 -40
-184 -40 -195 0 -14 14 -6 63 38 123 112 344 244 560 334 91 37 276 101 296
101 31 0 181 -430 271 -780 l37 -145 12 90 c22 153 79 460 126 670 65 291 50
259 128 269 123 16 205 -28 264 -141 73 -138 98 -286 98 -584 l0 -215 125 112
125 113 7 -97 c16 -233 97 -453 210 -577 26 -29 48 -60 48 -68 0 -48 -57 -150
-185 -333 -173 -245 -167 -235 -122 -201 40 30 166 92 209 102 l26 7 -24 -67
c-23 -64 -32 -145 -16 -145 4 0 32 25 62 56 108 111 187 173 212 167 119 -26
227 -84 319 -170 27 -25 49 -43 49 -39 0 4 -39 102 -86 219 -83 205 -86 216
-98 333 l-12 122 37 62 c75 122 206 481 216 588 4 40 10 61 17 58 160 -71 256
-90 426 -83 132 6 219 26 313 73 52 27 67 25 67 -10 0 -50 134 -495 171 -568
18 -35 18 -46 8 -165 -12 -127 -13 -130 -100 -351 -49 -122 -89 -224 -89 -227
0 -2 15 10 33 27 92 86 222 162 300 175 34 5 40 1 155 -111 122 -118 132 -124
132 -63 0 19 -33 121 -54 169 -16 37 162 -31 274 -104 l35 -23 -36 50 c-210
291 -270 383 -291 446 l-21 67 52 59 c97 108 176 302 202 498 13 95 31 141
102 255 109 174 260 346 387 440 84 62 197 123 214 117 7 -3 16 -18 18 -34 3
-15 26 -122 52 -238 26 -115 67 -324 90 -464 l42 -253 13 58 c85 388 295 964
353 964 31 0 225 -68 310 -108 163 -78 331 -202 470 -345 l77 -79 -15 57 c-28
106 -105 488 -139 690 -74 436 -103 780 -85 983 16 174 46 264 195 577 205
429 278 649 306 925 19 196 -7 404 -75 595 -41 114 -75 162 -198 280 -205 198
-402 303 -754 404 -562 162 -1114 271 -1529 302 -88 7 -161 13 -163 14 -1 1
23 44 54 96 132 217 264 541 311 757 l18 82 88 4 c69 3 87 1 87 -10 0 -10 14
-14 48 -14 42 0 52 4 84 38 20 20 38 46 40 57 2 12 13 21 26 23 28 4 29 -22 2
-63 -11 -16 -20 -33 -20 -37 0 -3 28 1 62 11 l62 17 -3 62 -2 62 31 0 c18 0
33 6 37 15 7 20 -48 883 -58 913 -6 16 -16 22 -38 22 -34 0 -41 13 -41 80 0
27 -9 69 -20 94 -28 67 -72 618 -64 806 6 135 6 135 -23 190 -68 129 -231 185
-643 221 -74 6 -138 14 -141 18 -9 9 -189 510 -249 691 -77 233 -112 375 -200
820 -46 229 -89 418 -99 435 -20 35 -35 39 -76 21z m1065 -2316 c81 -7 116
-16 159 -37 94 -48 90 -34 128 -450 28 -315 36 -378 57 -436 l25 -68 -27 3
c-21 2 -28 9 -30 29 -5 40 -63 63 -136 54 -46 -6 -56 -11 -56 -26 0 -15 -7
-19 -35 -19 -32 0 -35 3 -35 28 0 31 -18 51 -64 73 -22 10 -34 28 -47 64 -23
67 -23 72 5 79 14 3 29 18 36 36 19 47 2 76 -57 93 l-48 14 -92 269 c-51 148
-95 277 -99 287 -5 15 4 17 103 17 59 -1 155 -5 213 -10z m-2256 -207 c-65
-140 -158 -359 -178 -420 -16 -48 -22 -54 -69 -76 -29 -13 -60 -32 -70 -41
-39 -39 -6 -116 49 -116 19 0 25 -4 21 -14 -3 -8 -9 -30 -12 -48 -5 -28 -14
-36 -51 -52 -59 -24 -78 -54 -72 -111 5 -40 3 -45 -14 -45 -13 0 -18 5 -15 14
4 9 -6 15 -31 20 -64 10 -85 7 -124 -21 -34 -23 -38 -30 -33 -55 6 -25 4 -28
-19 -28 -30 0 -32 11 -13 82 9 38 9 124 -1 419 -15 416 -15 412 50 460 71 51
159 71 543 122 17 2 42 5 57 6 l27 1 -45 -97z m1864 -599 c12 -4 22 -14 22
-25 0 -22 242 -284 281 -305 15 -8 34 -14 41 -14 15 0 49 -91 74 -195 21 -88
24 -303 5 -400 -44 -224 -165 -401 -330 -483 -71 -35 -80 -37 -170 -37 -89 0
-101 2 -171 36 -245 117 -393 421 -377 773 7 149 25 222 88 353 76 158 194
264 334 300 48 12 153 10 203 -3z m-1516 -85 c206 -69 360 -280 414 -565 24
-127 15 -316 -21 -439 -120 -412 -463 -571 -755 -349 -118 90 -212 254 -256
449 -26 111 -25 310 1 425 17 76 23 89 61 125 23 22 67 74 97 115 30 41 69 93
87 115 18 22 39 54 46 72 28 65 205 93 326 52z m1913 -12 c12 -10 14 -16 7
-21 -13 -8 -52 10 -52 24 0 14 23 12 45 -3z m-2557 -129 c-5 -16 -48 -24 -48
-10 0 11 17 20 38 21 8 1 12 -5 10 -11z m-448 -1151 c0 -40 15 -57 52 -57 27
0 28 -2 28 -47 0 -27 4 -53 8 -59 4 -7 35 -16 70 -21 62 -10 62 -10 47 11 -8
12 -22 31 -31 43 -19 27 -11 43 22 43 19 0 24 -5 24 -24 0 -36 64 -76 122 -76
37 0 47 4 51 20 4 17 14 20 70 20 36 0 72 2 80 5 10 4 20 -13 36 -62 48 -147
137 -312 226 -418 23 -27 46 -61 50 -75 4 -14 40 -69 81 -122 41 -53 76 -103
79 -110 4 -10 -32 -13 -177 -14 -229 -2 -426 -26 -839 -101 -25 -5 -27 -2 -48
76 -63 234 -65 563 -6 891 20 106 21 110 40 110 10 0 15 -10 15 -33z m2140
-2397 c21 -39 -9 -78 -51 -65 -42 14 -29 85 16 85 14 0 29 -8 35 -20z m-250
-130 c0 -6 -32 -10 -75 -10 -43 0 -75 4 -75 10 0 6 32 10 75 10 43 0 75 -4 75
-10z"/>
<path d="M6615 7721 c-140 -65 -155 -260 -27 -342 98 -62 232 -27 281 73 81
168 -87 346 -254 269z m67 -238 c39 -36 5 -102 -47 -89 -37 9 -52 48 -31 81
19 29 51 32 78 8z"/>
<path d="M5046 7617 c-152 -94 -90 -330 87 -330 61 0 104 19 141 63 51 61 56
148 12 212 -36 53 -70 72 -139 76 -52 2 -68 -1 -101 -21z m170 -212 c15 -23
15 -27 0 -50 -30 -45 -86 -28 -86 27 0 49 59 65 86 23z"/>
</g>
</svg>
